<svg width="130" height="60" viewBox="0 0 130 60" fill="none" xmlns="http://www.w3.org/2000/svg">
<path d="M29.9744 24V23.088C30.2784 22.912 30.5984 22.76 30.9344 22.632C31.2864 22.504 31.6224 22.424 31.9424 22.392V8.808C31.6224 8.744 31.2864 8.656 30.9344 8.544C30.5824 8.416 30.2624 8.272 29.9744 8.112V7.2H33.8384C34.4464 7.2 35.0224 7.176 35.5664 7.128C36.1104 7.08 36.7344 7.056 37.4384 7.056C38.2064 7.056 38.9504 7.112 39.6704 7.224C40.3904 7.336 41.0304 7.536 41.5904 7.824C42.1504 8.112 42.5984 8.52 42.9344 9.048C43.2704 9.56 43.4384 10.224 43.4384 11.04C43.4384 11.552 43.3424 12.032 43.1504 12.48C42.9744 12.912 42.7184 13.296 42.3824 13.632C42.0624 13.968 41.6784 14.248 41.2304 14.472C40.7984 14.696 40.3264 14.856 39.8144 14.952V15.048C40.3264 15.112 40.8384 15.232 41.3504 15.408C41.8784 15.584 42.3504 15.84 42.7664 16.176C43.1824 16.512 43.5184 16.936 43.7744 17.448C44.0464 17.944 44.1824 18.536 44.1824 19.224C44.1824 20.088 43.9904 20.832 43.6064 21.456C43.2224 22.08 42.7024 22.592 42.0464 22.992C41.4064 23.392 40.6704 23.688 39.8384 23.88C39.0064 24.056 38.1424 24.144 37.2464 24.144C36.9104 24.144 36.5424 24.136 36.1424 24.12C35.7424 24.104 35.3424 24.088 34.9424 24.072C34.5424 24.056 34.1504 24.04 33.7664 24.024C33.3984 24.008 33.0864 24 32.8304 24H29.9744ZM37.2224 22.584C38.2304 22.584 39.0224 22.288 39.5984 21.696C40.1744 21.088 40.4624 20.288 40.4624 19.296C40.4624 18.688 40.3664 18.192 40.1744 17.808C39.9824 17.408 39.7184 17.096 39.3824 16.872C39.0464 16.632 38.6464 16.472 38.1824 16.392C37.7184 16.296 37.2144 16.248 36.6704 16.248H35.3984V22.416C35.6224 22.464 35.8544 22.504 36.0944 22.536C36.3504 22.568 36.7264 22.584 37.2224 22.584ZM36.1664 14.688C36.4384 14.688 36.7104 14.68 36.9824 14.664C37.2544 14.632 37.5104 14.6 37.7504 14.568C38.3744 14.312 38.8784 13.92 39.2624 13.392C39.6464 12.848 39.8384 12.232 39.8384 11.544C39.8384 10.536 39.5744 9.8 39.0464 9.336C38.5184 8.856 37.8384 8.616 37.0064 8.616C36.6544 8.616 36.3504 8.624 36.0944 8.64C35.8384 8.656 35.6064 8.68 35.3984 8.712V14.688H36.1664ZM53.5283 24H46.0403V23.088C46.6803 22.736 47.3283 22.504 47.9843 22.392V8.808C47.6643 8.76 47.3283 8.672 46.9763 8.544C46.6243 8.416 46.3123 8.272 46.0403 8.112V7.2H53.5283V8.112C53.2403 8.288 52.9203 8.44 52.5683 8.568C52.2323 8.68 51.9043 8.76 51.5843 8.808V22.392C51.9043 22.456 52.2323 22.544 52.5683 22.656C52.9203 22.768 53.2403 22.912 53.5283 23.088V24ZM69.754 22.944C69.434 23.104 69.042 23.264 68.578 23.424C68.114 23.584 67.626 23.728 67.114 23.856C66.602 23.984 66.09 24.088 65.578 24.168C65.066 24.248 64.61 24.288 64.21 24.288C62.834 24.288 61.602 24.112 60.514 23.76C59.442 23.392 58.522 22.848 57.754 22.128C57.002 21.392 56.426 20.48 56.026 19.392C55.626 18.304 55.426 17.04 55.426 15.6C55.426 14.032 55.666 12.704 56.146 11.616C56.642 10.512 57.29 9.616 58.09 8.928C58.906 8.224 59.826 7.712 60.85 7.392C61.874 7.072 62.922 6.912 63.994 6.912C65.05 6.912 66.042 6.984 66.97 7.128C67.898 7.272 68.634 7.48 69.178 7.752C69.178 7.992 69.162 8.304 69.13 8.688C69.114 9.056 69.082 9.456 69.034 9.888C68.986 10.32 68.922 10.752 68.842 11.184C68.778 11.616 68.698 12.008 68.602 12.36H67.618L66.274 8.712C66.098 8.632 65.834 8.576 65.482 8.544C65.13 8.496 64.778 8.472 64.426 8.472C63.77 8.472 63.138 8.6 62.53 8.856C61.922 9.112 61.386 9.528 60.922 10.104C60.458 10.664 60.09 11.4 59.818 12.312C59.546 13.208 59.41 14.304 59.41 15.6C59.41 16.656 59.53 17.624 59.77 18.504C60.026 19.368 60.378 20.112 60.826 20.736C61.274 21.36 61.81 21.848 62.434 22.2C63.058 22.552 63.746 22.728 64.498 22.728C64.738 22.728 64.986 22.712 65.242 22.68C65.498 22.632 65.738 22.576 65.962 22.512C66.186 22.448 66.378 22.376 66.538 22.296C66.714 22.216 66.834 22.144 66.898 22.08V17.568C66.482 17.536 66.09 17.456 65.722 17.328C65.354 17.2 65.01 17.048 64.69 16.872V15.96H71.242V16.872C71.098 17.016 70.906 17.152 70.666 17.28C70.426 17.392 70.122 17.488 69.754 17.568V22.944Z" fill="#FFF5E4"/>
<path d="M52.3978 44H44.1418V43.088C44.4618 42.96 44.8218 42.832 45.2218 42.704C45.6378 42.56 46.0538 42.456 46.4698 42.392V28.76H43.6858L42.1498 32.864H41.1658C41.1018 32.544 41.0378 32.136 40.9738 31.64C40.9098 31.144 40.8538 30.632 40.8058 30.104C40.7578 29.576 40.7178 29.056 40.6858 28.544C40.6538 28.016 40.6378 27.568 40.6378 27.2H55.9258C55.9258 27.584 55.9098 28.032 55.8778 28.544C55.8458 29.056 55.8058 29.576 55.7578 30.104C55.7098 30.632 55.6538 31.144 55.5898 31.64C55.5258 32.12 55.4618 32.528 55.3978 32.864H54.3898L52.8538 28.76H50.0698V42.392C50.4858 42.472 50.8938 42.568 51.2938 42.68C51.7098 42.792 52.0778 42.928 52.3978 43.088V44ZM60.2974 44H54.3694V43.088C54.6254 42.928 54.8974 42.792 55.1854 42.68C55.4894 42.552 55.7854 42.456 56.0734 42.392L62.2654 26.912H64.0414L70.0654 42.392C70.3854 42.456 70.7054 42.552 71.0254 42.68C71.3454 42.792 71.6254 42.928 71.8654 43.088V44H64.3534V43.088C64.6574 42.944 64.9854 42.808 65.3374 42.68C65.6894 42.552 66.0254 42.456 66.3454 42.392L64.9534 38.576H59.6254L58.2094 42.392C58.9454 42.488 59.6414 42.72 60.2974 43.088V44ZM60.2014 37.016H64.4494L62.8894 32.432L62.4334 30.368H62.3854L61.8574 32.48L60.2014 37.016ZM75.8618 42.008C76.0378 42.184 76.2858 42.352 76.6058 42.512C76.9258 42.656 77.3498 42.728 77.8778 42.728C78.7578 42.728 79.4858 42.504 80.0618 42.056C80.6538 41.592 80.9498 40.952 80.9498 40.136C80.9498 39.544 80.7578 39.048 80.3738 38.648C80.0058 38.248 79.5338 37.88 78.9578 37.544C78.3818 37.208 77.7658 36.88 77.1098 36.56C76.4538 36.224 75.8378 35.832 75.2617 35.384C74.6858 34.936 74.2058 34.408 73.8218 33.8C73.4538 33.176 73.2698 32.408 73.2698 31.496C73.2698 30.712 73.4138 30.032 73.7018 29.456C73.9898 28.88 74.3818 28.408 74.8778 28.04C75.3898 27.656 75.9898 27.376 76.6778 27.2C77.3658 27.008 78.1098 26.912 78.9098 26.912C79.8858 26.912 80.7898 26.984 81.6218 27.128C82.4698 27.256 83.2298 27.464 83.9018 27.752C83.8858 28.072 83.8538 28.44 83.8058 28.856C83.7738 29.272 83.7258 29.688 83.6618 30.104C83.5978 30.504 83.5258 30.888 83.4458 31.256C83.3818 31.608 83.3178 31.904 83.2538 32.144H82.2698L81.1658 28.856C80.9738 28.76 80.6858 28.672 80.3018 28.592C79.9338 28.512 79.5498 28.472 79.1497 28.472C78.4778 28.472 77.9098 28.648 77.4458 29C76.9818 29.352 76.7498 29.864 76.7498 30.536C76.7498 31.144 76.9418 31.664 77.3258 32.096C77.7098 32.512 78.1898 32.896 78.7658 33.248C79.3418 33.6 79.9658 33.952 80.6378 34.304C81.3258 34.64 81.9578 35.032 82.5338 35.48C83.1098 35.928 83.5898 36.456 83.9738 37.064C84.3578 37.656 84.5498 38.392 84.5498 39.272C84.5498 40.872 84.0058 42.112 82.9178 42.992C81.8458 43.856 80.2618 44.288 78.1658 44.288C77.6538 44.288 77.1338 44.256 76.6058 44.192C76.0938 44.128 75.6058 44.04 75.1418 43.928C74.6778 43.816 74.2618 43.696 73.8938 43.568C73.5418 43.44 73.2778 43.304 73.1018 43.16C73.1178 42.792 73.1578 42.4 73.2218 41.984C73.2858 41.552 73.3498 41.128 73.4138 40.712C73.4938 40.28 73.5738 39.872 73.6538 39.488C73.7338 39.104 73.8138 38.768 73.8938 38.48H74.8778L75.8618 42.008ZM97.8366 44H89.5806V43.088C89.9006 42.96 90.2606 42.832 90.6606 42.704C91.0766 42.56 91.4926 42.456 91.9086 42.392V28.76H89.1246L87.5886 32.864H86.6046C86.5406 32.544 86.4766 32.136 86.4126 31.64C86.3486 31.144 86.2926 30.632 86.2446 30.104C86.1966 29.576 86.1566 29.056 86.1246 28.544C86.0926 28.016 86.0766 27.568 86.0766 27.2H101.365C101.365 27.584 101.349 28.032 101.317 28.544C101.285 29.056 101.245 29.576 101.197 30.104C101.149 30.632 101.093 31.144 101.029 31.64C100.965 32.12 100.901 32.528 100.837 32.864H99.8286L98.2926 28.76H95.5086V42.392C95.9246 42.472 96.3326 42.568 96.7326 42.68C97.1486 42.792 97.5166 42.928 97.8366 43.088V44ZM112.836 27.2H118.716V28.112C118.476 28.256 118.204 28.4 117.9 28.544C117.612 28.672 117.316 28.76 117.012 28.808L112.356 36.968V42.392C112.676 42.424 112.988 42.512 113.292 42.656C113.612 42.784 113.908 42.928 114.18 43.088V44H106.788V43.088C107.06 42.944 107.364 42.808 107.7 42.68C108.036 42.552 108.388 42.456 108.756 42.392V36.992L103.908 28.808C103.54 28.744 103.188 28.648 102.852 28.52C102.532 28.392 102.236 28.256 101.964 28.112V27.2H109.836V28.112C109.612 28.24 109.356 28.368 109.068 28.496C108.78 28.624 108.444 28.728 108.06 28.808L111.492 35.24L114.756 28.808C114.388 28.728 114.036 28.624 113.7 28.496C113.364 28.368 113.076 28.24 112.836 28.112V27.2Z" fill="#FFF5E4"/>
<path d="M89.1339 24H82.7739V23.064C82.9819 22.952 83.1819 22.856 83.3739 22.776C83.5819 22.68 83.8219 22.584 84.0939 22.488V16.848C84.0939 15.84 83.9499 15.056 83.6619 14.496C83.3739 13.92 82.8619 13.632 82.1259 13.632C81.5179 13.632 80.9899 13.832 80.5419 14.232C80.1099 14.616 79.7819 15.144 79.5579 15.816V22.488C79.8139 22.552 80.0379 22.632 80.2299 22.728C80.4379 22.808 80.6539 22.92 80.8779 23.064V24H74.5179V23.064C74.9179 22.856 75.4459 22.664 76.1019 22.488V13.704L74.5179 13.512V12.576C74.7259 12.48 74.9979 12.392 75.3339 12.312C75.6699 12.216 76.0299 12.128 76.4139 12.048C76.8139 11.968 77.2139 11.904 77.6139 11.856C78.0299 11.792 78.4059 11.744 78.7419 11.712H79.5579V14.184H79.5819C79.9179 13.512 80.4219 12.936 81.0939 12.456C81.7659 11.96 82.5819 11.712 83.5419 11.712C84.1659 11.712 84.7259 11.792 85.2219 11.952C85.7179 12.096 86.1339 12.36 86.4699 12.744C86.8219 13.128 87.0859 13.648 87.2619 14.304C87.4539 14.944 87.5499 15.76 87.5499 16.752V22.488C88.1899 22.6 88.7179 22.792 89.1339 23.064V24ZM91.1393 12.96C91.7633 12.8 92.2513 12.52 92.6033 12.12C92.9553 11.72 93.1153 11.304 93.0833 10.872C92.8753 10.616 92.6113 10.416 92.2913 10.272C91.9873 10.112 91.6593 9.976 91.3073 9.864C91.2273 9.576 91.2113 9.288 91.2593 9C91.3233 8.696 91.4353 8.424 91.5953 8.184C91.7553 7.928 91.9393 7.712 92.1473 7.536C92.3713 7.36 92.5953 7.256 92.8193 7.224C93.1393 7.24 93.4593 7.312 93.7793 7.44C94.0993 7.552 94.3793 7.72 94.6193 7.944C94.8753 8.152 95.0753 8.424 95.2193 8.76C95.3793 9.08 95.4593 9.464 95.4593 9.912C95.4593 10.344 95.3633 10.784 95.1713 11.232C94.9793 11.68 94.7073 12.096 94.3553 12.48C94.0193 12.864 93.6113 13.2 93.1313 13.488C92.6513 13.76 92.1313 13.952 91.5713 14.064L91.1393 12.96Z" fill="#EE6983"/>
</svg>
